<mxfile host="app.diagrams.net" agent="Mozilla/5.0 (Windows NT 10.0; Win64; x64) AppleWebKit/537.36 (KHTML, like Gecko) Chrome/126.0.0.0 YaBrowser/24.7.0.0 Safari/537.36" version="24.7.12">
  <diagram name="Страница — 1" id="XyX01asF92II2D4djbyy">
    <mxGraphModel dx="683" dy="395" grid="1" gridSize="10" guides="1" tooltips="1" connect="1" arrows="1" fold="1" page="1" pageScale="1" pageWidth="827" pageHeight="1169" math="0" shadow="0">
      <root>
        <mxCell id="0" />
        <mxCell id="1" parent="0" />
        <mxCell id="a6Et4iSOfBraLnJkJ6NL-97" style="edgeStyle=orthogonalEdgeStyle;rounded=0;orthogonalLoop=1;jettySize=auto;html=1;entryX=1;entryY=0.5;entryDx=0;entryDy=0;startArrow=ERone;startFill=0;endArrow=ERmany;endFill=0;" edge="1" parent="1" source="a6Et4iSOfBraLnJkJ6NL-26" target="a6Et4iSOfBraLnJkJ6NL-86">
          <mxGeometry relative="1" as="geometry">
            <Array as="points">
              <mxPoint x="420" y="630" />
              <mxPoint x="502" y="630" />
              <mxPoint x="502" y="697" />
            </Array>
          </mxGeometry>
        </mxCell>
        <mxCell id="a6Et4iSOfBraLnJkJ6NL-26" value="Rental" style="shape=table;startSize=16;container=1;collapsible=0;childLayout=tableLayout;swimlaneFillColor=default;" vertex="1" parent="1">
          <mxGeometry x="358" y="481" width="124" height="116" as="geometry" />
        </mxCell>
        <mxCell id="a6Et4iSOfBraLnJkJ6NL-27" value="" style="shape=tableRow;horizontal=0;startSize=0;swimlaneHead=0;swimlaneBody=0;strokeColor=inherit;top=0;left=0;bottom=0;right=0;collapsible=0;dropTarget=0;fillColor=none;points=[[0,0.5],[1,0.5]];portConstraint=eastwest;" vertex="1" parent="a6Et4iSOfBraLnJkJ6NL-26">
          <mxGeometry y="16" width="124" height="20" as="geometry" />
        </mxCell>
        <mxCell id="a6Et4iSOfBraLnJkJ6NL-28" value="PK" style="shape=partialRectangle;html=1;whiteSpace=wrap;connectable=0;strokeColor=inherit;overflow=hidden;fillColor=none;top=0;left=0;bottom=0;right=0;pointerEvents=1;" vertex="1" parent="a6Et4iSOfBraLnJkJ6NL-27">
          <mxGeometry width="30" height="20" as="geometry">
            <mxRectangle width="30" height="20" as="alternateBounds" />
          </mxGeometry>
        </mxCell>
        <mxCell id="a6Et4iSOfBraLnJkJ6NL-29" value="&lt;span style=&quot;text-wrap: nowrap;&quot;&gt;RentalID&lt;/span&gt;" style="shape=partialRectangle;html=1;whiteSpace=wrap;connectable=0;strokeColor=inherit;overflow=hidden;fillColor=none;top=0;left=0;bottom=0;right=0;pointerEvents=1;" vertex="1" parent="a6Et4iSOfBraLnJkJ6NL-27">
          <mxGeometry x="30" width="94" height="20" as="geometry">
            <mxRectangle width="94" height="20" as="alternateBounds" />
          </mxGeometry>
        </mxCell>
        <mxCell id="a6Et4iSOfBraLnJkJ6NL-30" value="" style="shape=tableRow;horizontal=0;startSize=0;swimlaneHead=0;swimlaneBody=0;strokeColor=inherit;top=0;left=0;bottom=0;right=0;collapsible=0;dropTarget=0;fillColor=none;points=[[0,0.5],[1,0.5]];portConstraint=eastwest;" vertex="1" parent="a6Et4iSOfBraLnJkJ6NL-26">
          <mxGeometry y="36" width="124" height="20" as="geometry" />
        </mxCell>
        <mxCell id="a6Et4iSOfBraLnJkJ6NL-31" value="FK" style="shape=partialRectangle;html=1;whiteSpace=wrap;connectable=0;strokeColor=inherit;overflow=hidden;fillColor=none;top=0;left=0;bottom=0;right=0;pointerEvents=1;" vertex="1" parent="a6Et4iSOfBraLnJkJ6NL-30">
          <mxGeometry width="30" height="20" as="geometry">
            <mxRectangle width="30" height="20" as="alternateBounds" />
          </mxGeometry>
        </mxCell>
        <mxCell id="a6Et4iSOfBraLnJkJ6NL-32" value="ClientID" style="shape=partialRectangle;html=1;whiteSpace=wrap;connectable=0;strokeColor=inherit;overflow=hidden;fillColor=none;top=0;left=0;bottom=0;right=0;pointerEvents=1;" vertex="1" parent="a6Et4iSOfBraLnJkJ6NL-30">
          <mxGeometry x="30" width="94" height="20" as="geometry">
            <mxRectangle width="94" height="20" as="alternateBounds" />
          </mxGeometry>
        </mxCell>
        <mxCell id="a6Et4iSOfBraLnJkJ6NL-33" value="" style="shape=tableRow;horizontal=0;startSize=0;swimlaneHead=0;swimlaneBody=0;strokeColor=inherit;top=0;left=0;bottom=0;right=0;collapsible=0;dropTarget=0;fillColor=none;points=[[0,0.5],[1,0.5]];portConstraint=eastwest;" vertex="1" parent="a6Et4iSOfBraLnJkJ6NL-26">
          <mxGeometry y="56" width="124" height="20" as="geometry" />
        </mxCell>
        <mxCell id="a6Et4iSOfBraLnJkJ6NL-34" value="FK" style="shape=partialRectangle;html=1;whiteSpace=wrap;connectable=0;strokeColor=inherit;overflow=hidden;fillColor=none;top=0;left=0;bottom=0;right=0;pointerEvents=1;" vertex="1" parent="a6Et4iSOfBraLnJkJ6NL-33">
          <mxGeometry width="30" height="20" as="geometry">
            <mxRectangle width="30" height="20" as="alternateBounds" />
          </mxGeometry>
        </mxCell>
        <mxCell id="a6Et4iSOfBraLnJkJ6NL-35" value="CarID" style="shape=partialRectangle;html=1;whiteSpace=wrap;connectable=0;strokeColor=inherit;overflow=hidden;fillColor=none;top=0;left=0;bottom=0;right=0;pointerEvents=1;" vertex="1" parent="a6Et4iSOfBraLnJkJ6NL-33">
          <mxGeometry x="30" width="94" height="20" as="geometry">
            <mxRectangle width="94" height="20" as="alternateBounds" />
          </mxGeometry>
        </mxCell>
        <mxCell id="a6Et4iSOfBraLnJkJ6NL-36" value="" style="shape=tableRow;horizontal=0;startSize=0;swimlaneHead=0;swimlaneBody=0;strokeColor=inherit;top=0;left=0;bottom=0;right=0;collapsible=0;dropTarget=0;fillColor=none;points=[[0,0.5],[1,0.5]];portConstraint=eastwest;" vertex="1" parent="a6Et4iSOfBraLnJkJ6NL-26">
          <mxGeometry y="76" width="124" height="20" as="geometry" />
        </mxCell>
        <mxCell id="a6Et4iSOfBraLnJkJ6NL-37" value="" style="shape=partialRectangle;html=1;whiteSpace=wrap;connectable=0;strokeColor=inherit;overflow=hidden;fillColor=none;top=0;left=0;bottom=0;right=0;pointerEvents=1;" vertex="1" parent="a6Et4iSOfBraLnJkJ6NL-36">
          <mxGeometry width="30" height="20" as="geometry">
            <mxRectangle width="30" height="20" as="alternateBounds" />
          </mxGeometry>
        </mxCell>
        <mxCell id="a6Et4iSOfBraLnJkJ6NL-38" value="&lt;span style=&quot;text-wrap: nowrap;&quot;&gt;RentalStartDate&lt;/span&gt;" style="shape=partialRectangle;html=1;whiteSpace=wrap;connectable=0;strokeColor=inherit;overflow=hidden;fillColor=none;top=0;left=0;bottom=0;right=0;pointerEvents=1;" vertex="1" parent="a6Et4iSOfBraLnJkJ6NL-36">
          <mxGeometry x="30" width="94" height="20" as="geometry">
            <mxRectangle width="94" height="20" as="alternateBounds" />
          </mxGeometry>
        </mxCell>
        <mxCell id="a6Et4iSOfBraLnJkJ6NL-39" value="" style="shape=tableRow;horizontal=0;startSize=0;swimlaneHead=0;swimlaneBody=0;strokeColor=inherit;top=0;left=0;bottom=0;right=0;collapsible=0;dropTarget=0;fillColor=none;points=[[0,0.5],[1,0.5]];portConstraint=eastwest;" vertex="1" parent="a6Et4iSOfBraLnJkJ6NL-26">
          <mxGeometry y="96" width="124" height="20" as="geometry" />
        </mxCell>
        <mxCell id="a6Et4iSOfBraLnJkJ6NL-40" value="" style="shape=partialRectangle;html=1;whiteSpace=wrap;connectable=0;strokeColor=inherit;overflow=hidden;fillColor=none;top=0;left=0;bottom=0;right=0;pointerEvents=1;" vertex="1" parent="a6Et4iSOfBraLnJkJ6NL-39">
          <mxGeometry width="30" height="20" as="geometry">
            <mxRectangle width="30" height="20" as="alternateBounds" />
          </mxGeometry>
        </mxCell>
        <mxCell id="a6Et4iSOfBraLnJkJ6NL-41" value="&lt;span style=&quot;text-wrap: nowrap;&quot;&gt;RentalEndDate&lt;/span&gt;" style="shape=partialRectangle;html=1;whiteSpace=wrap;connectable=0;strokeColor=inherit;overflow=hidden;fillColor=none;top=0;left=0;bottom=0;right=0;pointerEvents=1;" vertex="1" parent="a6Et4iSOfBraLnJkJ6NL-39">
          <mxGeometry x="30" width="94" height="20" as="geometry">
            <mxRectangle width="94" height="20" as="alternateBounds" />
          </mxGeometry>
        </mxCell>
        <mxCell id="a6Et4iSOfBraLnJkJ6NL-96" style="edgeStyle=orthogonalEdgeStyle;rounded=0;orthogonalLoop=1;jettySize=auto;html=1;entryX=1;entryY=0.5;entryDx=0;entryDy=0;startArrow=ERone;startFill=0;endArrow=ERmany;endFill=0;" edge="1" parent="1" source="a6Et4iSOfBraLnJkJ6NL-42" target="a6Et4iSOfBraLnJkJ6NL-33">
          <mxGeometry relative="1" as="geometry" />
        </mxCell>
        <mxCell id="a6Et4iSOfBraLnJkJ6NL-42" value="Car" style="shape=table;startSize=16;container=1;collapsible=0;childLayout=tableLayout;swimlaneFillColor=default;" vertex="1" parent="1">
          <mxGeometry x="482" y="323" width="134.27761904761883" height="116" as="geometry" />
        </mxCell>
        <mxCell id="a6Et4iSOfBraLnJkJ6NL-43" value="" style="shape=tableRow;horizontal=0;startSize=0;swimlaneHead=0;swimlaneBody=0;strokeColor=inherit;top=0;left=0;bottom=0;right=0;collapsible=0;dropTarget=0;fillColor=none;points=[[0,0.5],[1,0.5]];portConstraint=eastwest;" vertex="1" parent="a6Et4iSOfBraLnJkJ6NL-42">
          <mxGeometry y="16" width="134.27761904761883" height="20" as="geometry" />
        </mxCell>
        <mxCell id="a6Et4iSOfBraLnJkJ6NL-44" value="PK" style="shape=partialRectangle;html=1;whiteSpace=wrap;connectable=0;strokeColor=inherit;overflow=hidden;fillColor=none;top=0;left=0;bottom=0;right=0;pointerEvents=1;" vertex="1" parent="a6Et4iSOfBraLnJkJ6NL-43">
          <mxGeometry width="30" height="20" as="geometry">
            <mxRectangle width="30" height="20" as="alternateBounds" />
          </mxGeometry>
        </mxCell>
        <mxCell id="a6Et4iSOfBraLnJkJ6NL-45" value="CarID" style="shape=partialRectangle;html=1;whiteSpace=wrap;connectable=0;strokeColor=inherit;overflow=hidden;fillColor=none;top=0;left=0;bottom=0;right=0;pointerEvents=1;" vertex="1" parent="a6Et4iSOfBraLnJkJ6NL-43">
          <mxGeometry x="30" width="104" height="20" as="geometry">
            <mxRectangle width="104" height="20" as="alternateBounds" />
          </mxGeometry>
        </mxCell>
        <mxCell id="a6Et4iSOfBraLnJkJ6NL-46" value="" style="shape=tableRow;horizontal=0;startSize=0;swimlaneHead=0;swimlaneBody=0;strokeColor=inherit;top=0;left=0;bottom=0;right=0;collapsible=0;dropTarget=0;fillColor=none;points=[[0,0.5],[1,0.5]];portConstraint=eastwest;" vertex="1" parent="a6Et4iSOfBraLnJkJ6NL-42">
          <mxGeometry y="36" width="134.27761904761883" height="20" as="geometry" />
        </mxCell>
        <mxCell id="a6Et4iSOfBraLnJkJ6NL-47" value="" style="shape=partialRectangle;html=1;whiteSpace=wrap;connectable=0;strokeColor=inherit;overflow=hidden;fillColor=none;top=0;left=0;bottom=0;right=0;pointerEvents=1;" vertex="1" parent="a6Et4iSOfBraLnJkJ6NL-46">
          <mxGeometry width="30" height="20" as="geometry">
            <mxRectangle width="30" height="20" as="alternateBounds" />
          </mxGeometry>
        </mxCell>
        <mxCell id="a6Et4iSOfBraLnJkJ6NL-48" value="Brand" style="shape=partialRectangle;html=1;whiteSpace=wrap;connectable=0;strokeColor=inherit;overflow=hidden;fillColor=none;top=0;left=0;bottom=0;right=0;pointerEvents=1;" vertex="1" parent="a6Et4iSOfBraLnJkJ6NL-46">
          <mxGeometry x="30" width="104" height="20" as="geometry">
            <mxRectangle width="104" height="20" as="alternateBounds" />
          </mxGeometry>
        </mxCell>
        <mxCell id="a6Et4iSOfBraLnJkJ6NL-49" value="" style="shape=tableRow;horizontal=0;startSize=0;swimlaneHead=0;swimlaneBody=0;strokeColor=inherit;top=0;left=0;bottom=0;right=0;collapsible=0;dropTarget=0;fillColor=none;points=[[0,0.5],[1,0.5]];portConstraint=eastwest;" vertex="1" parent="a6Et4iSOfBraLnJkJ6NL-42">
          <mxGeometry y="56" width="134.27761904761883" height="20" as="geometry" />
        </mxCell>
        <mxCell id="a6Et4iSOfBraLnJkJ6NL-50" value="" style="shape=partialRectangle;html=1;whiteSpace=wrap;connectable=0;strokeColor=inherit;overflow=hidden;fillColor=none;top=0;left=0;bottom=0;right=0;pointerEvents=1;" vertex="1" parent="a6Et4iSOfBraLnJkJ6NL-49">
          <mxGeometry width="30" height="20" as="geometry">
            <mxRectangle width="30" height="20" as="alternateBounds" />
          </mxGeometry>
        </mxCell>
        <mxCell id="a6Et4iSOfBraLnJkJ6NL-51" value="Model" style="shape=partialRectangle;html=1;whiteSpace=wrap;connectable=0;strokeColor=inherit;overflow=hidden;fillColor=none;top=0;left=0;bottom=0;right=0;pointerEvents=1;" vertex="1" parent="a6Et4iSOfBraLnJkJ6NL-49">
          <mxGeometry x="30" width="104" height="20" as="geometry">
            <mxRectangle width="104" height="20" as="alternateBounds" />
          </mxGeometry>
        </mxCell>
        <mxCell id="a6Et4iSOfBraLnJkJ6NL-55" value="" style="shape=tableRow;horizontal=0;startSize=0;swimlaneHead=0;swimlaneBody=0;strokeColor=inherit;top=0;left=0;bottom=0;right=0;collapsible=0;dropTarget=0;fillColor=none;points=[[0,0.5],[1,0.5]];portConstraint=eastwest;" vertex="1" parent="a6Et4iSOfBraLnJkJ6NL-42">
          <mxGeometry y="76" width="134.27761904761883" height="20" as="geometry" />
        </mxCell>
        <mxCell id="a6Et4iSOfBraLnJkJ6NL-56" value="" style="shape=partialRectangle;html=1;whiteSpace=wrap;connectable=0;strokeColor=inherit;overflow=hidden;fillColor=none;top=0;left=0;bottom=0;right=0;pointerEvents=1;" vertex="1" parent="a6Et4iSOfBraLnJkJ6NL-55">
          <mxGeometry width="30" height="20" as="geometry">
            <mxRectangle width="30" height="20" as="alternateBounds" />
          </mxGeometry>
        </mxCell>
        <mxCell id="a6Et4iSOfBraLnJkJ6NL-57" value="Type" style="shape=partialRectangle;html=1;whiteSpace=wrap;connectable=0;strokeColor=inherit;overflow=hidden;fillColor=none;top=0;left=0;bottom=0;right=0;pointerEvents=1;" vertex="1" parent="a6Et4iSOfBraLnJkJ6NL-55">
          <mxGeometry x="30" width="104" height="20" as="geometry">
            <mxRectangle width="104" height="20" as="alternateBounds" />
          </mxGeometry>
        </mxCell>
        <mxCell id="a6Et4iSOfBraLnJkJ6NL-52" value="" style="shape=tableRow;horizontal=0;startSize=0;swimlaneHead=0;swimlaneBody=0;strokeColor=inherit;top=0;left=0;bottom=0;right=0;collapsible=0;dropTarget=0;fillColor=none;points=[[0,0.5],[1,0.5]];portConstraint=eastwest;" vertex="1" parent="a6Et4iSOfBraLnJkJ6NL-42">
          <mxGeometry y="96" width="134.27761904761883" height="20" as="geometry" />
        </mxCell>
        <mxCell id="a6Et4iSOfBraLnJkJ6NL-53" value="" style="shape=partialRectangle;html=1;whiteSpace=wrap;connectable=0;strokeColor=inherit;overflow=hidden;fillColor=none;top=0;left=0;bottom=0;right=0;pointerEvents=1;" vertex="1" parent="a6Et4iSOfBraLnJkJ6NL-52">
          <mxGeometry width="30" height="20" as="geometry">
            <mxRectangle width="30" height="20" as="alternateBounds" />
          </mxGeometry>
        </mxCell>
        <mxCell id="a6Et4iSOfBraLnJkJ6NL-54" value="RentalCostPerDay" style="shape=partialRectangle;html=1;whiteSpace=wrap;connectable=0;strokeColor=inherit;overflow=hidden;fillColor=none;top=0;left=0;bottom=0;right=0;pointerEvents=1;" vertex="1" parent="a6Et4iSOfBraLnJkJ6NL-52">
          <mxGeometry x="30" width="104" height="20" as="geometry">
            <mxRectangle width="104" height="20" as="alternateBounds" />
          </mxGeometry>
        </mxCell>
        <mxCell id="a6Et4iSOfBraLnJkJ6NL-95" style="edgeStyle=orthogonalEdgeStyle;rounded=0;orthogonalLoop=1;jettySize=auto;html=1;entryX=0;entryY=0.5;entryDx=0;entryDy=0;startArrow=ERone;startFill=0;endArrow=ERmany;endFill=0;" edge="1" parent="1" source="a6Et4iSOfBraLnJkJ6NL-63" target="a6Et4iSOfBraLnJkJ6NL-30">
          <mxGeometry relative="1" as="geometry" />
        </mxCell>
        <mxCell id="a6Et4iSOfBraLnJkJ6NL-63" value="Client" style="shape=table;startSize=17;container=1;collapsible=0;childLayout=tableLayout;swimlaneFillColor=default;" vertex="1" parent="1">
          <mxGeometry x="238" y="323" width="120" height="137" as="geometry" />
        </mxCell>
        <mxCell id="a6Et4iSOfBraLnJkJ6NL-64" value="" style="shape=tableRow;horizontal=0;startSize=0;swimlaneHead=0;swimlaneBody=0;strokeColor=inherit;top=0;left=0;bottom=0;right=0;collapsible=0;dropTarget=0;fillColor=none;points=[[0,0.5],[1,0.5]];portConstraint=eastwest;" vertex="1" parent="a6Et4iSOfBraLnJkJ6NL-63">
          <mxGeometry y="17" width="120" height="20" as="geometry" />
        </mxCell>
        <mxCell id="a6Et4iSOfBraLnJkJ6NL-65" value="PK" style="shape=partialRectangle;html=1;whiteSpace=wrap;connectable=0;strokeColor=inherit;overflow=hidden;fillColor=none;top=0;left=0;bottom=0;right=0;pointerEvents=1;" vertex="1" parent="a6Et4iSOfBraLnJkJ6NL-64">
          <mxGeometry width="30" height="20" as="geometry">
            <mxRectangle width="30" height="20" as="alternateBounds" />
          </mxGeometry>
        </mxCell>
        <mxCell id="a6Et4iSOfBraLnJkJ6NL-66" value="ClientID" style="shape=partialRectangle;html=1;whiteSpace=wrap;connectable=0;strokeColor=inherit;overflow=hidden;fillColor=none;top=0;left=0;bottom=0;right=0;pointerEvents=1;" vertex="1" parent="a6Et4iSOfBraLnJkJ6NL-64">
          <mxGeometry x="30" width="90" height="20" as="geometry">
            <mxRectangle width="90" height="20" as="alternateBounds" />
          </mxGeometry>
        </mxCell>
        <mxCell id="a6Et4iSOfBraLnJkJ6NL-67" value="" style="shape=tableRow;horizontal=0;startSize=0;swimlaneHead=0;swimlaneBody=0;strokeColor=inherit;top=0;left=0;bottom=0;right=0;collapsible=0;dropTarget=0;fillColor=none;points=[[0,0.5],[1,0.5]];portConstraint=eastwest;" vertex="1" parent="a6Et4iSOfBraLnJkJ6NL-63">
          <mxGeometry y="37" width="120" height="19" as="geometry" />
        </mxCell>
        <mxCell id="a6Et4iSOfBraLnJkJ6NL-68" value="" style="shape=partialRectangle;html=1;whiteSpace=wrap;connectable=0;strokeColor=inherit;overflow=hidden;fillColor=none;top=0;left=0;bottom=0;right=0;pointerEvents=1;" vertex="1" parent="a6Et4iSOfBraLnJkJ6NL-67">
          <mxGeometry width="30" height="19" as="geometry">
            <mxRectangle width="30" height="19" as="alternateBounds" />
          </mxGeometry>
        </mxCell>
        <mxCell id="a6Et4iSOfBraLnJkJ6NL-69" value="LastName" style="shape=partialRectangle;html=1;whiteSpace=wrap;connectable=0;strokeColor=inherit;overflow=hidden;fillColor=none;top=0;left=0;bottom=0;right=0;pointerEvents=1;" vertex="1" parent="a6Et4iSOfBraLnJkJ6NL-67">
          <mxGeometry x="30" width="90" height="19" as="geometry">
            <mxRectangle width="90" height="19" as="alternateBounds" />
          </mxGeometry>
        </mxCell>
        <mxCell id="a6Et4iSOfBraLnJkJ6NL-70" value="" style="shape=tableRow;horizontal=0;startSize=0;swimlaneHead=0;swimlaneBody=0;strokeColor=inherit;top=0;left=0;bottom=0;right=0;collapsible=0;dropTarget=0;fillColor=none;points=[[0,0.5],[1,0.5]];portConstraint=eastwest;" vertex="1" parent="a6Et4iSOfBraLnJkJ6NL-63">
          <mxGeometry y="56" width="120" height="21" as="geometry" />
        </mxCell>
        <mxCell id="a6Et4iSOfBraLnJkJ6NL-71" value="" style="shape=partialRectangle;html=1;whiteSpace=wrap;connectable=0;strokeColor=inherit;overflow=hidden;fillColor=none;top=0;left=0;bottom=0;right=0;pointerEvents=1;" vertex="1" parent="a6Et4iSOfBraLnJkJ6NL-70">
          <mxGeometry width="30" height="21" as="geometry">
            <mxRectangle width="30" height="21" as="alternateBounds" />
          </mxGeometry>
        </mxCell>
        <mxCell id="a6Et4iSOfBraLnJkJ6NL-72" value="FirstName" style="shape=partialRectangle;html=1;whiteSpace=wrap;connectable=0;strokeColor=inherit;overflow=hidden;fillColor=none;top=0;left=0;bottom=0;right=0;pointerEvents=1;" vertex="1" parent="a6Et4iSOfBraLnJkJ6NL-70">
          <mxGeometry x="30" width="90" height="21" as="geometry">
            <mxRectangle width="90" height="21" as="alternateBounds" />
          </mxGeometry>
        </mxCell>
        <mxCell id="a6Et4iSOfBraLnJkJ6NL-73" value="" style="shape=tableRow;horizontal=0;startSize=0;swimlaneHead=0;swimlaneBody=0;strokeColor=inherit;top=0;left=0;bottom=0;right=0;collapsible=0;dropTarget=0;fillColor=none;points=[[0,0.5],[1,0.5]];portConstraint=eastwest;" vertex="1" parent="a6Et4iSOfBraLnJkJ6NL-63">
          <mxGeometry y="77" width="120" height="20" as="geometry" />
        </mxCell>
        <mxCell id="a6Et4iSOfBraLnJkJ6NL-74" value="" style="shape=partialRectangle;html=1;whiteSpace=wrap;connectable=0;strokeColor=inherit;overflow=hidden;fillColor=none;top=0;left=0;bottom=0;right=0;pointerEvents=1;" vertex="1" parent="a6Et4iSOfBraLnJkJ6NL-73">
          <mxGeometry width="30" height="20" as="geometry">
            <mxRectangle width="30" height="20" as="alternateBounds" />
          </mxGeometry>
        </mxCell>
        <mxCell id="a6Et4iSOfBraLnJkJ6NL-75" value="MiddleName" style="shape=partialRectangle;html=1;whiteSpace=wrap;connectable=0;strokeColor=inherit;overflow=hidden;fillColor=none;top=0;left=0;bottom=0;right=0;pointerEvents=1;" vertex="1" parent="a6Et4iSOfBraLnJkJ6NL-73">
          <mxGeometry x="30" width="90" height="20" as="geometry">
            <mxRectangle width="90" height="20" as="alternateBounds" />
          </mxGeometry>
        </mxCell>
        <mxCell id="a6Et4iSOfBraLnJkJ6NL-76" value="" style="shape=tableRow;horizontal=0;startSize=0;swimlaneHead=0;swimlaneBody=0;strokeColor=inherit;top=0;left=0;bottom=0;right=0;collapsible=0;dropTarget=0;fillColor=none;points=[[0,0.5],[1,0.5]];portConstraint=eastwest;" vertex="1" parent="a6Et4iSOfBraLnJkJ6NL-63">
          <mxGeometry y="97" width="120" height="20" as="geometry" />
        </mxCell>
        <mxCell id="a6Et4iSOfBraLnJkJ6NL-77" value="" style="shape=partialRectangle;html=1;whiteSpace=wrap;connectable=0;strokeColor=inherit;overflow=hidden;fillColor=none;top=0;left=0;bottom=0;right=0;pointerEvents=1;" vertex="1" parent="a6Et4iSOfBraLnJkJ6NL-76">
          <mxGeometry width="30" height="20" as="geometry">
            <mxRectangle width="30" height="20" as="alternateBounds" />
          </mxGeometry>
        </mxCell>
        <mxCell id="a6Et4iSOfBraLnJkJ6NL-78" value="Address" style="shape=partialRectangle;html=1;whiteSpace=wrap;connectable=0;strokeColor=inherit;overflow=hidden;fillColor=none;top=0;left=0;bottom=0;right=0;pointerEvents=1;" vertex="1" parent="a6Et4iSOfBraLnJkJ6NL-76">
          <mxGeometry x="30" width="90" height="20" as="geometry">
            <mxRectangle width="90" height="20" as="alternateBounds" />
          </mxGeometry>
        </mxCell>
        <mxCell id="a6Et4iSOfBraLnJkJ6NL-79" value="" style="shape=tableRow;horizontal=0;startSize=0;swimlaneHead=0;swimlaneBody=0;strokeColor=inherit;top=0;left=0;bottom=0;right=0;collapsible=0;dropTarget=0;fillColor=none;points=[[0,0.5],[1,0.5]];portConstraint=eastwest;" vertex="1" parent="a6Et4iSOfBraLnJkJ6NL-63">
          <mxGeometry y="117" width="120" height="20" as="geometry" />
        </mxCell>
        <mxCell id="a6Et4iSOfBraLnJkJ6NL-80" value="" style="shape=partialRectangle;html=1;whiteSpace=wrap;connectable=0;strokeColor=inherit;overflow=hidden;fillColor=none;top=0;left=0;bottom=0;right=0;pointerEvents=1;" vertex="1" parent="a6Et4iSOfBraLnJkJ6NL-79">
          <mxGeometry width="30" height="20" as="geometry">
            <mxRectangle width="30" height="20" as="alternateBounds" />
          </mxGeometry>
        </mxCell>
        <mxCell id="a6Et4iSOfBraLnJkJ6NL-81" value="Phone" style="shape=partialRectangle;html=1;whiteSpace=wrap;connectable=0;strokeColor=inherit;overflow=hidden;fillColor=none;top=0;left=0;bottom=0;right=0;pointerEvents=1;" vertex="1" parent="a6Et4iSOfBraLnJkJ6NL-79">
          <mxGeometry x="30" width="90" height="20" as="geometry">
            <mxRectangle width="90" height="20" as="alternateBounds" />
          </mxGeometry>
        </mxCell>
        <mxCell id="a6Et4iSOfBraLnJkJ6NL-82" value="Payment" style="shape=table;startSize=17;container=1;collapsible=0;childLayout=tableLayout;swimlaneFillColor=default;" vertex="1" parent="1">
          <mxGeometry x="360" y="650" width="120" height="97" as="geometry" />
        </mxCell>
        <mxCell id="a6Et4iSOfBraLnJkJ6NL-83" value="" style="shape=tableRow;horizontal=0;startSize=0;swimlaneHead=0;swimlaneBody=0;strokeColor=inherit;top=0;left=0;bottom=0;right=0;collapsible=0;dropTarget=0;fillColor=none;points=[[0,0.5],[1,0.5]];portConstraint=eastwest;" vertex="1" parent="a6Et4iSOfBraLnJkJ6NL-82">
          <mxGeometry y="17" width="120" height="20" as="geometry" />
        </mxCell>
        <mxCell id="a6Et4iSOfBraLnJkJ6NL-84" value="PK" style="shape=partialRectangle;html=1;whiteSpace=wrap;connectable=0;strokeColor=inherit;overflow=hidden;fillColor=none;top=0;left=0;bottom=0;right=0;pointerEvents=1;" vertex="1" parent="a6Et4iSOfBraLnJkJ6NL-83">
          <mxGeometry width="30" height="20" as="geometry">
            <mxRectangle width="30" height="20" as="alternateBounds" />
          </mxGeometry>
        </mxCell>
        <mxCell id="a6Et4iSOfBraLnJkJ6NL-85" value="PaymentID" style="shape=partialRectangle;html=1;whiteSpace=wrap;connectable=0;strokeColor=inherit;overflow=hidden;fillColor=none;top=0;left=0;bottom=0;right=0;pointerEvents=1;" vertex="1" parent="a6Et4iSOfBraLnJkJ6NL-83">
          <mxGeometry x="30" width="90" height="20" as="geometry">
            <mxRectangle width="90" height="20" as="alternateBounds" />
          </mxGeometry>
        </mxCell>
        <mxCell id="a6Et4iSOfBraLnJkJ6NL-86" value="" style="shape=tableRow;horizontal=0;startSize=0;swimlaneHead=0;swimlaneBody=0;strokeColor=inherit;top=0;left=0;bottom=0;right=0;collapsible=0;dropTarget=0;fillColor=none;points=[[0,0.5],[1,0.5]];portConstraint=eastwest;" vertex="1" parent="a6Et4iSOfBraLnJkJ6NL-82">
          <mxGeometry y="37" width="120" height="20" as="geometry" />
        </mxCell>
        <mxCell id="a6Et4iSOfBraLnJkJ6NL-87" value="FK" style="shape=partialRectangle;html=1;whiteSpace=wrap;connectable=0;strokeColor=inherit;overflow=hidden;fillColor=none;top=0;left=0;bottom=0;right=0;pointerEvents=1;" vertex="1" parent="a6Et4iSOfBraLnJkJ6NL-86">
          <mxGeometry width="30" height="20" as="geometry">
            <mxRectangle width="30" height="20" as="alternateBounds" />
          </mxGeometry>
        </mxCell>
        <mxCell id="a6Et4iSOfBraLnJkJ6NL-88" value="RentalID" style="shape=partialRectangle;html=1;whiteSpace=wrap;connectable=0;strokeColor=inherit;overflow=hidden;fillColor=none;top=0;left=0;bottom=0;right=0;pointerEvents=1;" vertex="1" parent="a6Et4iSOfBraLnJkJ6NL-86">
          <mxGeometry x="30" width="90" height="20" as="geometry">
            <mxRectangle width="90" height="20" as="alternateBounds" />
          </mxGeometry>
        </mxCell>
        <mxCell id="a6Et4iSOfBraLnJkJ6NL-89" value="" style="shape=tableRow;horizontal=0;startSize=0;swimlaneHead=0;swimlaneBody=0;strokeColor=inherit;top=0;left=0;bottom=0;right=0;collapsible=0;dropTarget=0;fillColor=none;points=[[0,0.5],[1,0.5]];portConstraint=eastwest;" vertex="1" parent="a6Et4iSOfBraLnJkJ6NL-82">
          <mxGeometry y="57" width="120" height="20" as="geometry" />
        </mxCell>
        <mxCell id="a6Et4iSOfBraLnJkJ6NL-90" value="" style="shape=partialRectangle;html=1;whiteSpace=wrap;connectable=0;strokeColor=inherit;overflow=hidden;fillColor=none;top=0;left=0;bottom=0;right=0;pointerEvents=1;" vertex="1" parent="a6Et4iSOfBraLnJkJ6NL-89">
          <mxGeometry width="30" height="20" as="geometry">
            <mxRectangle width="30" height="20" as="alternateBounds" />
          </mxGeometry>
        </mxCell>
        <mxCell id="a6Et4iSOfBraLnJkJ6NL-91" value="Amount" style="shape=partialRectangle;html=1;whiteSpace=wrap;connectable=0;strokeColor=inherit;overflow=hidden;fillColor=none;top=0;left=0;bottom=0;right=0;pointerEvents=1;" vertex="1" parent="a6Et4iSOfBraLnJkJ6NL-89">
          <mxGeometry x="30" width="90" height="20" as="geometry">
            <mxRectangle width="90" height="20" as="alternateBounds" />
          </mxGeometry>
        </mxCell>
        <mxCell id="a6Et4iSOfBraLnJkJ6NL-92" value="" style="shape=tableRow;horizontal=0;startSize=0;swimlaneHead=0;swimlaneBody=0;strokeColor=inherit;top=0;left=0;bottom=0;right=0;collapsible=0;dropTarget=0;fillColor=none;points=[[0,0.5],[1,0.5]];portConstraint=eastwest;" vertex="1" parent="a6Et4iSOfBraLnJkJ6NL-82">
          <mxGeometry y="77" width="120" height="20" as="geometry" />
        </mxCell>
        <mxCell id="a6Et4iSOfBraLnJkJ6NL-93" value="" style="shape=partialRectangle;html=1;whiteSpace=wrap;connectable=0;strokeColor=inherit;overflow=hidden;fillColor=none;top=0;left=0;bottom=0;right=0;pointerEvents=1;" vertex="1" parent="a6Et4iSOfBraLnJkJ6NL-92">
          <mxGeometry width="30" height="20" as="geometry">
            <mxRectangle width="30" height="20" as="alternateBounds" />
          </mxGeometry>
        </mxCell>
        <mxCell id="a6Et4iSOfBraLnJkJ6NL-94" value="PaymentDate" style="shape=partialRectangle;html=1;whiteSpace=wrap;connectable=0;strokeColor=inherit;overflow=hidden;fillColor=none;top=0;left=0;bottom=0;right=0;pointerEvents=1;" vertex="1" parent="a6Et4iSOfBraLnJkJ6NL-92">
          <mxGeometry x="30" width="90" height="20" as="geometry">
            <mxRectangle width="90" height="20" as="alternateBounds" />
          </mxGeometry>
        </mxCell>
      </root>
    </mxGraphModel>
  </diagram>
</mxfile>
